<svg width="12" height="12" viewBox="0 0 12 12" fill="none" xmlns="http://www.w3.org/2000/svg">
<path d="M6 0C2.6916 0 0 2.6916 0 6C0 9.3084 2.6916 12 6 12C9.3084 12 12 9.3084 12 6C12 2.6916 9.3084 0 6 0ZM6 2.46C6.15427 2.46 6.30507 2.50575 6.43334 2.59145C6.56161 2.67716 6.66159 2.79898 6.72063 2.94151C6.77966 3.08403 6.79511 3.24086 6.76501 3.39217C6.73492 3.54348 6.66063 3.68246 6.55154 3.79154C6.44246 3.90063 6.30348 3.97492 6.15217 4.00501C6.00087 4.03511 5.84403 4.01966 5.70151 3.96063C5.55898 3.90159 5.43716 3.80161 5.35145 3.67334C5.26575 3.54507 5.22 3.39427 5.22 3.24C5.22 3.03313 5.30218 2.83473 5.44846 2.68846C5.59473 2.54218 5.79313 2.46 6 2.46ZM7.44 9.24H4.8C4.6727 9.24 4.55061 9.18943 4.46059 9.09941C4.37057 9.00939 4.32 8.8873 4.32 8.76C4.32 8.6327 4.37057 8.51061 4.46059 8.42059C4.55061 8.33057 4.6727 8.28 4.8 8.28H5.64V5.64H5.16C5.0327 5.64 4.91061 5.58943 4.82059 5.49941C4.73057 5.40939 4.68 5.2873 4.68 5.16C4.68 5.0327 4.73057 4.91061 4.82059 4.82059C4.91061 4.73057 5.0327 4.68 5.16 4.68H6.12C6.2473 4.68 6.36939 4.73057 6.45941 4.82059C6.54943 4.91061 6.6 5.0327 6.6 5.16V8.28H7.44C7.5673 8.28 7.68939 8.33057 7.77941 8.42059C7.86943 8.51061 7.92 8.6327 7.92 8.76C7.92 8.8873 7.86943 9.00939 7.77941 9.09941C7.68939 9.18943 7.5673 9.24 7.44 9.24Z" fill="#747474"/>
</svg>
