<svg width="12" height="12" viewBox="0 0 12 12" fill="none" xmlns="http://www.w3.org/2000/svg">
<g clip-path="url(#clip0_425_829)">
<path fill-rule="evenodd" clip-rule="evenodd" d="M6 12C9.31371 12 12 9.31371 12 6C12 2.68629 9.31371 0 6 0C2.68629 0 0 2.68629 0 6C0 9.31371 2.68629 12 6 12ZM7.85019 5.93875C8.16516 5.84876 8.44542 5.58972 8.44542 5.0689C8.44542 4.20178 7.77577 4 6.91763 4H3.49998V7.90477H4.93847V6.57954H6.64482C6.90771 6.57954 7.06148 6.69407 7.06148 6.97766V7.90477H8.49998V6.92857C8.49998 6.39685 8.22716 6.06145 7.85019 5.93875ZM6.88379 5.09095H4.93911V5.62334L6.88379 5.62317L6.89253 5.62334C7.02624 5.62334 7.13466 5.50416 7.13466 5.35714C7.13466 5.21013 7.02624 5.09095 6.89253 5.09095C6.89155 5.09095 6.89058 5.09094 6.88961 5.09092C6.88766 5.0909 6.88572 5.09087 6.88379 5.09095Z" fill="#747474"/>
</g>
<defs>
<clipPath id="clip0_425_829">
<rect width="12" height="12" fill="white"/>
</clipPath>
</defs>
</svg>
