<svg width="12" height="12" viewBox="0 0 12 12" fill="none" xmlns="http://www.w3.org/2000/svg">
<path d="M2.49394 5.71343C2.49393 5.64641 2.50715 5.58006 2.53285 5.51817C2.55855 5.45628 2.59622 5.40009 2.6437 5.35281C2.69118 5.30553 2.74752 5.2681 2.8095 5.24267C2.87148 5.21723 2.93787 5.2043 3.00486 5.20462L3.85192 5.20739C3.98698 5.20739 4.11651 5.26106 4.21201 5.3566C4.30751 5.45214 4.36117 5.58171 4.36117 5.71682V8.92098C4.45659 8.8927 4.57897 8.86255 4.71303 8.83108C4.80611 8.80917 4.88907 8.75644 4.94845 8.68146C5.00783 8.60648 5.04015 8.51363 5.04018 8.41797V4.44348C5.04017 4.37657 5.05334 4.31031 5.07893 4.24849C5.10452 4.18667 5.14203 4.1305 5.18933 4.08319C5.23662 4.03587 5.29276 3.99834 5.35456 3.97273C5.41635 3.94712 5.48258 3.93393 5.54946 3.93393H6.3982C6.53325 3.93395 6.66277 3.98763 6.75827 4.08316C6.85376 4.17869 6.90742 4.30825 6.90744 4.44335V8.13234C6.90744 8.13234 7.11985 8.04629 7.32691 7.95888C7.40379 7.92635 7.4694 7.87188 7.51555 7.80229C7.5617 7.7327 7.58634 7.65106 7.58641 7.56755V3.16968C7.58641 3.10279 7.59958 3.03654 7.62516 2.97474C7.65075 2.91293 7.68826 2.85677 7.73554 2.80947C7.78283 2.76216 7.83896 2.72464 7.90075 2.69904C7.96253 2.67343 8.02875 2.66026 8.09562 2.66026H8.94435C9.07942 2.66026 9.20895 2.71393 9.30446 2.80946C9.39997 2.905 9.45363 3.03457 9.45364 3.16968V6.79108C10.1895 6.25763 10.9352 5.61597 11.527 4.84446C11.6129 4.73246 11.6697 4.60095 11.6924 4.46166C11.7151 4.32236 11.703 4.17961 11.6571 4.04613C11.2567 2.87875 10.5056 1.86359 9.50653 1.13945C8.50746 0.415315 7.30918 0.0175496 6.07554 0.00054395C2.74895 -0.0441592 -0.000297997 2.67231 2.87844e-05 6.00049C-0.00323752 7.05363 0.271533 8.08896 0.796557 9.00181C0.868962 9.12666 0.975482 9.22825 1.1036 9.29465C1.23172 9.36104 1.37613 9.38949 1.51985 9.37663C1.68042 9.36249 1.88033 9.34251 2.11798 9.3146C2.22142 9.30283 2.31691 9.25341 2.38628 9.17575C2.45565 9.09809 2.49404 8.99762 2.49414 8.89348V5.71343" fill="#747474"/>
<path d="M2.47544 10.8522C3.37009 11.5033 4.42733 11.8941 5.53021 11.9814C6.63309 12.0687 7.73862 11.8491 8.72448 11.3468C9.71034 10.8446 10.5381 10.0794 11.1162 9.13575C11.6943 8.19214 12.0001 7.10694 12 6.00022C12 5.86207 11.9936 5.72547 11.9843 5.5896C9.79317 8.85857 5.74746 10.3868 2.4754 10.8523" fill="#747474"/>
</svg>
