<svg width="12" height="12" viewBox="0 0 12 12" fill="none" xmlns="http://www.w3.org/2000/svg">
<path fill-rule="evenodd" clip-rule="evenodd" d="M6 12C9.31371 12 12 9.31371 12 6C12 2.68629 9.31371 0 6 0C2.68629 0 0 2.68629 0 6C0 9.31371 2.68629 12 6 12ZM4.17568 3L1.5 5.51869L6 9.75L10.5 5.51869L7.82432 3H4.17568ZM2.95946 5.51695L3.93243 4.60169C5.06931 3.52756 6.93069 3.52755 8.06757 4.60168L9.04054 5.51695L8.06757 6.43221C6.93069 7.50634 5.06931 7.50635 3.93243 6.43221L2.95946 5.51695ZM4.60135 5.51695C4.60135 6.24387 5.22786 6.83263 6 6.83263C6.77214 6.83263 7.39865 6.24387 7.39865 5.51695C7.39865 4.79003 6.77214 4.20127 6 4.20127C5.22786 4.20127 4.60135 4.79003 4.60135 5.51695ZM6 6.08898C5.66429 6.08898 5.39189 5.833 5.39189 5.51695C5.39189 5.20089 5.66429 4.94491 6 4.94491C6.33571 4.94491 6.60811 5.20089 6.60811 5.51695C6.60811 5.833 6.33571 6.08898 6 6.08898Z" fill="#747474"/>
</svg>
