<svg width="808" height="204" viewBox="0 0 808 204" fill="none" xmlns="http://www.w3.org/2000/svg">
<path d="M120.946 32.8964C131.164 32.655 139.638 36.4565 146.37 44.3009C153.943 53.3521 158.03 62.524 158.631 71.8165C159.473 81.8332 155.025 89.6172 145.288 95.1686C141.922 97.0995 135.731 99.6339 126.716 102.772C123.11 103.978 120.946 105.125 120.225 106.211C119.503 107.297 119.443 109.651 120.044 113.271C120.525 116.409 121.367 121.9 122.569 129.744C123.891 137.589 124.792 143.683 125.273 148.028C125.754 152.01 125.874 158.044 125.634 166.13C125.514 168.785 124.071 171.259 121.306 173.552C118.662 175.966 116.017 177.112 113.373 176.991C110.728 176.871 109.045 175.121 108.324 171.742C107.002 161.242 105.86 152.795 104.898 146.398C102.734 131.434 101.051 121.236 99.8492 115.805L98.7673 111.823C97.8057 108.926 96.9041 107.478 96.0626 107.478C95.4616 107.478 94.4999 108.866 93.1776 111.642C91.8553 115.262 90.8937 118.46 90.2926 121.236C85.7247 139.58 82.7195 151.829 81.277 157.984C80.5557 160.88 78.9329 162.57 76.4086 163.053C72.5619 164.018 69.737 164.501 67.9338 164.501C64.8084 164.621 62.7649 164.139 61.8032 163.053C60.9618 161.966 60.7814 159.915 61.2623 156.898C67.7535 123.107 78.6925 87.5052 94.0792 50.0936C98.6471 38.6288 107.603 32.8964 120.946 32.8964ZM110.848 73.4457C110.367 76.5835 110.728 78.7558 111.93 79.9626C113.132 81.0487 115.837 81.7125 120.044 81.9539C124.853 81.9539 128.279 80.0229 130.322 76.1611C134.049 69.2822 134.89 63.3687 132.846 58.4207C131.164 54.8003 127.978 52.99 123.29 52.99C119.443 52.7487 116.919 54.4986 115.717 58.2397C112.832 66.4461 111.209 71.5148 110.848 73.4457Z" fill="white"/>
<path d="M146.128 135.356C145.767 138.252 146.308 141.933 147.75 146.398C149.313 150.743 151.176 154.484 153.34 157.622C154.422 159.311 155.263 160.639 155.865 161.604C156.466 162.69 157.668 164.259 159.471 166.311C161.274 168.483 162.957 170.052 164.52 171.018C166.202 172.104 168.306 173.009 170.83 173.733C173.475 174.578 176.12 174.638 178.764 173.914C181.409 173.311 184.414 171.862 187.78 169.569C191.266 167.397 194.812 164.259 198.418 160.156C203.467 154.605 207.855 148.571 211.581 142.054C215.308 135.537 217.952 129.684 219.515 124.494C221.078 119.305 222.4 114.176 223.482 109.107C224.564 104.039 224.924 100.237 224.564 97.7029C224.323 95.1686 224.203 93.298 224.203 92.0912C223.482 90.0396 220.296 89.4362 214.646 90.281C209.117 91.1257 205.751 92.7549 204.549 95.1686C204.188 95.6513 203.888 97.2805 203.647 100.056C203.527 102.711 203.527 105.487 203.647 108.383C203.768 111.159 203.046 114.961 201.484 119.788C200.041 124.494 197.757 129.141 194.632 133.727C187.78 144.467 181.589 149.958 176.06 150.2C171.732 150.321 169.268 147.062 168.667 140.425C168.547 138.494 168.607 136.261 168.847 133.727C169.568 128.055 171.672 121.296 175.158 113.452C178.644 105.487 181.529 99.0304 183.813 94.0824C186.217 89.1345 186.818 86.4191 185.616 85.9364C182.25 84.1261 175.459 85.5743 165.241 90.281C160.312 92.5739 156.045 99.0908 152.439 109.832C148.953 120.452 146.849 128.96 146.128 135.356Z" fill="white"/>
<path d="M241.436 72.9027C241.916 69.2822 244.02 66.7478 247.747 65.2997C250.632 63.6101 254.959 63.0067 260.729 63.4894C266.499 63.8515 271.908 65.722 276.957 69.1012C282.487 72.4803 286.033 78.1524 287.596 86.1174C289.158 94.0825 289.098 102.41 287.415 111.099C285.853 119.788 283.148 128.055 279.301 135.899C275.334 144.347 268.723 150.803 259.467 155.269C250.331 159.613 241.556 162.208 233.141 163.053C229.775 163.053 228.092 161.122 228.092 157.26L241.436 72.9027ZM247.747 139.519C251.473 140.364 255.38 138.614 259.467 134.27C263.674 129.804 266.499 125.279 267.942 120.693C270.947 112.607 271.788 104.884 270.466 97.5219C269.865 94.6255 268.362 91.7291 265.958 88.8328C263.554 85.8157 260.188 83.7641 255.861 82.678C254.899 82.3159 254.118 82.4366 253.517 83.04C252.916 83.6434 252.435 84.7899 252.074 86.4795C251.834 88.169 251.653 89.9189 251.533 91.7291C251.413 93.5394 251.173 96.0737 250.812 99.3321C250.571 102.591 250.211 105.608 249.73 108.383C249.61 109.711 249.309 111.762 248.828 114.538C248.468 117.193 248.047 119.848 247.566 122.503C247.206 125.158 246.845 127.813 246.484 130.468C246.244 133.003 246.184 135.115 246.304 136.804C246.544 138.494 247.025 139.399 247.747 139.519Z" fill="white"/>
<path d="M288.938 161.242C289.419 156.415 290.2 149.717 291.282 141.149C292.484 132.58 293.927 122.262 295.61 110.194C297.293 98.0046 299.036 87.6259 300.839 79.0575C302.642 70.489 304.145 66.0841 305.347 65.8427C307.51 65.36 313.521 64.5152 323.378 63.3084C333.355 62.1016 340.748 60.8947 345.556 59.6879C347.119 59.3259 348.922 62.4033 350.966 68.9201C353.13 75.3163 353.851 79.2988 353.13 80.8677C352.649 81.8332 349.944 83.04 345.015 84.4882C340.207 85.9364 335.098 87.3242 329.689 88.6517C324.4 89.8586 321.395 90.643 320.673 91.005C318.63 91.7291 316.947 93.8411 315.624 97.3409C314.302 100.72 313.821 103.978 314.182 107.116C314.543 110.254 315.805 111.823 317.969 111.823C319.531 111.823 321.996 111.159 325.361 109.832C328.847 108.504 331.552 107.478 333.475 106.754C335.399 106.03 337.082 106.09 338.524 106.935C339.967 108.142 340.448 110.676 339.967 114.538C339.606 118.279 338.644 121.176 337.082 123.227C335.88 124.675 331.672 125.882 324.46 126.848C317.368 127.813 313.401 128.598 312.559 129.201C310.996 130.408 310.275 132.942 310.395 136.804C310.636 140.545 311.958 142.657 314.362 143.14C316.766 143.623 322.116 141.752 330.41 137.528C338.825 133.184 343.994 131.253 345.917 131.735C347.961 132.339 348.381 135.296 347.179 140.606C345.977 145.916 344.535 149.536 342.852 151.467C342.13 152.553 337.082 154.424 327.705 157.079C318.329 159.613 309.734 161.423 301.921 162.509C294.107 163.716 289.78 163.294 288.938 161.242Z" fill="white"/>
<path d="M408.149 154.906C407.668 153.82 408.63 150.26 411.034 144.226C413.438 138.071 416.564 130.77 420.41 122.322C424.257 113.874 426.421 109.047 426.901 107.84C427.743 106.03 429.486 101.203 432.131 93.3584C434.775 85.3933 437.36 78.3334 439.884 72.1786C442.529 66.0238 444.632 62.524 446.195 61.6792C449.2 60.1103 452.626 58.6018 456.473 57.1536C460.44 55.5847 464.767 54.2572 469.455 53.1711C474.143 52.0849 478.471 51.5418 482.438 51.5418C486.525 51.4212 490.071 52.3263 493.076 54.2572C496.202 56.0674 498.125 58.9035 498.846 62.7653C499.447 67.1099 498.846 71.3941 497.043 75.618C495.36 79.8419 492.836 83.6434 489.47 87.0225C486.104 90.4016 482.979 93.2377 480.094 95.5306C477.329 97.7029 474.203 99.8752 470.717 102.048C467.231 104.22 465.428 105.366 465.308 105.487C464.226 106.211 464.467 106.694 466.029 106.935C471.078 107.659 474.384 108.564 475.947 109.651C477.389 110.616 478.411 111.883 479.012 113.452C480.454 117.072 479.793 121.417 477.028 126.486C474.264 131.554 470.177 136.14 464.767 140.244C461.281 143.14 457.014 145.735 451.965 148.028C446.916 150.2 441.988 151.829 437.179 152.915C432.371 154.001 427.743 154.846 423.295 155.45C418.968 155.932 415.422 156.113 412.657 155.993C409.892 155.872 408.389 155.51 408.149 154.906ZM431.59 138.071C433.513 138.675 436.518 137.89 440.605 135.718C444.813 133.425 448.238 130.529 450.883 127.029C453.648 123.408 454.008 120.271 451.965 117.616C450.162 115.564 448.359 114.478 446.556 114.357C444.873 114.236 443.49 114.598 442.408 115.443C441.447 116.167 440.605 117.133 439.884 118.34C432.311 130.529 429.546 137.106 431.59 138.071ZM446.375 95.1686C448.9 96.6168 453.167 95.1686 459.177 90.824C465.188 86.4794 470.116 81.5315 473.963 75.9801C477.93 70.4287 478.651 66.8685 476.127 65.2997C473.482 63.7308 469.756 63.9118 464.947 65.8427C460.139 67.653 457.074 69.8253 455.751 72.3596C447.577 86.4795 444.452 94.0825 446.375 95.1686Z" fill="white"/>
<path d="M484.248 113.633C486.051 105.789 490.499 97.4012 497.591 88.4707C504.804 79.5402 511.956 72.4803 519.048 67.2909C526.261 62.1016 531.25 59.9293 534.014 60.7741C541.828 62.9463 546.396 72.782 547.718 90.281C548.439 101.625 545.975 112.426 540.325 122.684C534.675 132.822 527.763 141.209 519.589 147.847C515.021 151.467 510.574 153.519 506.246 154.001C501.919 154.484 498.132 153.7 494.886 151.648C491.761 149.476 489.056 146.398 486.772 142.416C486.051 141.33 485.33 139.761 484.609 137.709C483.887 135.537 483.286 132.339 482.805 128.115C482.445 123.77 482.926 118.943 484.248 113.633ZM500.837 108.926C498.793 114.719 498.372 119.607 499.575 123.589C500.897 127.451 503.301 129.925 506.787 131.011C510.153 132.097 513.338 131.313 516.344 128.658C519.349 126.003 522.715 121.115 526.441 113.995C528.845 110.013 530.288 105.728 530.769 101.142C531.249 96.4358 530.949 92.6343 529.867 89.7379C528.905 86.7208 527.583 85.2123 525.9 85.2123C521.212 84.4882 516.464 86.6605 511.655 91.7291C506.847 96.7978 503.241 102.53 500.837 108.926Z" fill="white"/>
<path d="M538.977 160.88C538.977 163.053 540.9 164.32 544.747 164.682C548.594 165.164 551.659 164.621 553.943 163.053C555.386 162.087 558.751 157.984 564.041 150.743C569.45 143.381 575.941 134.33 583.514 123.589C591.208 112.849 597.158 104.763 601.365 99.3321C604.01 95.953 607.256 92.0308 611.102 87.5656C615.069 82.9797 618.315 79.1782 620.839 76.1611C623.484 73.0233 626.008 69.8253 628.412 66.5668C630.816 63.3084 632.439 60.4724 633.281 58.0587C634.122 55.5244 634.122 53.3521 633.281 51.5418C631.478 48.1627 629.073 45.9301 626.068 44.844C623.063 43.6371 620.118 44.3612 617.233 47.0163C616.391 47.9817 615.009 49.6109 613.086 51.9039C611.162 54.0762 609.66 55.8261 608.578 57.1536C607.496 58.3604 606.053 59.9896 604.25 62.0412C602.447 64.0928 600.945 65.7824 599.743 67.1099C598.54 68.3167 597.158 69.7649 595.595 71.4545C594.033 73.0233 592.71 74.2905 591.628 75.256C590.667 76.2214 589.585 77.1265 588.383 77.9713C587.301 78.8161 586.399 79.4195 585.678 79.7816C584.957 80.0229 584.356 80.0833 583.875 79.9626C582.673 79.6005 581.411 77.2472 580.088 72.9027C578.766 68.4374 577.083 64.0325 575.04 59.6879C572.996 55.2227 570.652 52.7487 568.007 52.2659C565.723 51.7832 563.319 53.2314 560.795 56.6105C558.271 59.8689 556.648 63.4894 555.927 67.4719C555.325 71.3338 555.806 74.6526 557.369 77.4283C557.489 77.5489 558.21 78.4541 559.533 80.1436C560.855 81.7125 561.997 83.1003 562.959 84.3072C563.92 85.514 565.122 87.2035 566.565 89.3758C568.007 91.4274 569.149 93.3584 569.991 95.1686C570.832 96.9788 571.433 98.9701 571.794 101.142C572.275 103.194 572.335 105.125 571.974 106.935C571.494 108.625 568.488 113.09 562.959 120.331C557.429 127.572 552.02 135.175 546.731 143.14C541.562 150.984 538.977 156.898 538.977 160.88Z" fill="white"/>
<path d="M663.279 31.9913C662.197 36.2152 660.815 40.8011 659.132 45.7491C657.449 50.6971 655.586 55.6451 653.542 60.593C651.619 65.4203 649.695 70.0063 647.772 74.3509H636.052C636.893 70.9717 637.735 67.3513 638.576 63.4894C639.538 59.6276 640.379 55.7657 641.1 51.9039C641.942 47.9214 642.663 44.0595 643.264 40.3184C643.985 36.5772 644.586 33.1377 645.067 30H662.017L663.279 31.9913Z" fill="white"/>
<path d="M672.259 170.475C670.456 170.475 669.374 169.328 669.014 167.035C668.773 164.863 669.134 162.57 670.096 160.156C671.177 157.863 672.56 156.536 674.243 156.174C695.039 153.398 708.142 147.303 713.551 137.89C715.594 134.028 716.797 130.77 717.157 128.115C717.518 125.46 717.277 123.589 716.436 122.503C715.594 121.417 714.392 120.753 712.83 120.512C709.704 120.15 705.978 120.21 701.65 120.693C697.323 121.055 694.077 121.055 691.913 120.693C689.75 120.331 688.187 119.064 687.225 116.891C685.302 112.909 686.865 107.961 691.913 102.048C697.082 96.0134 703.754 90.0396 711.928 84.1261C718.179 79.9022 724.55 77.1869 731.041 75.9801C737.653 74.7732 741.86 75.1956 743.663 77.2472C745.827 79.0575 746.488 82.4969 745.647 87.5656C744.805 92.5136 743.242 94.9876 740.958 94.9876C739.997 94.9876 738.795 94.5048 737.352 93.5394C736.03 92.4532 734.107 92.0309 731.582 92.2722C729.058 92.3929 725.391 93.7204 720.583 96.2547C711.808 100.358 709.103 103.496 712.469 105.668C713.671 106.392 715.234 106.754 717.157 106.754C719.201 106.754 722.506 106.332 727.074 105.487C731.762 104.642 735.249 104.401 737.533 104.763C739.937 105.125 741.319 106.573 741.68 109.107C742.281 114.176 741.199 120.633 738.434 128.477C735.669 136.201 731.342 142.416 725.452 147.122C716.556 154.363 706.579 160.035 695.52 164.139C684.46 168.363 676.707 170.475 672.259 170.475Z" fill="white"/>
</svg>
