<?xml version="1.0" standalone="no"?>
<!DOCTYPE svg PUBLIC "-//W3C//DTD SVG 1.1//EN" "http://www.w3.org/Graphics/SVG/1.1/DTD/svg11.dtd" >
<svg>
<metadata>
Created by FontForge 20090622 at Mon Nov 12 11:03:30 2018
 By ffonts
Copyright freepepa 2018
</metadata>
<defs>
<font id="RevMiniPixel" horiz-adv-x="2560" >
  <font-face 
    font-family="RevMiniPixel"
    font-weight="400"
    font-stretch="normal"
    units-per-em="4096"
    panose-1="0 0 4 0 0 0 0 0 0 0"
    ascent="3072"
    descent="-1024"
    x-height="2048"
    cap-height="3072"
    bbox="0 -1024 4096 3072"
    underline-thickness="204"
    underline-position="511"
    unicode-range="U+0020-U+2215"
  />
<missing-glyph horiz-adv-x="1024" 
d="M1536 436v488h-489v-488h489zM2024 1007v489h-977v-489h977zM1536 1575v489h-489v-489h489zM2024 2147v485h-488q-203 0 -345 -141q-144 -144 -144 -344h977zM0 0v3072h3072v-3072h-3072z" />
    <glyph glyph-name=".notdef" horiz-adv-x="1024" 
d="M1536 436v488h-489v-488h489zM2024 1007v489h-977v-489h977zM1536 1575v489h-489v-489h489zM2024 2147v485h-488q-203 0 -345 -141q-144 -144 -144 -344h977zM0 0v3072h3072v-3072h-3072z" />
    <glyph glyph-name="glyph1" horiz-adv-x="0" 
 />
    <glyph glyph-name="glyph2" horiz-adv-x="1024" 
 />
    <glyph glyph-name="space" unicode=" " horiz-adv-x="1024" 
 />
    <glyph glyph-name="exclam" unicode="!" horiz-adv-x="1024" 
d="M0 0v512h512v-512h-512zM0 1024v2048h512v-2048h-512z" />
    <glyph glyph-name="quotedbl" unicode="&#x22;" horiz-adv-x="2048" 
d="M0 2048v1024h512v-1024h-512zM1024 2048v1024h512v-1024h-512z" />
    <glyph glyph-name="numbersign" unicode="#" horiz-adv-x="3072" 
d="M1536 1024v1024h-512v-1024h512zM512 0v512h-512v512h512v1024h-512v512h512v512h512v-512h512v512h512v-512h512v-512h-512v-1024h512v-512h-512v-512h-512v512h-512v-512h-512z" />
    <glyph glyph-name="dollar" unicode="$" horiz-adv-x="3072" 
d="M0 512v512h512v-512h-512zM2048 512v512h512v-512h-512zM0 2048v512h512v-512h-512zM2048 2048v512h512v-512h-512zM512 0v512h512v1024h-512v512h512v512h-512v512h1536v-512h-512v-1024h512v-512h-512v-512h512v-512h-1536z" />
    <glyph glyph-name="percent" unicode="%" 
d="M0 0v512h512v-512h-512zM1536 512v512h512v-512h-512zM512 512v1024h512v-1024h-512zM0 2048v512h512v-512h-512zM1024 1536v1024h512v-1024h-512zM1536 2560v512h512v-512h-512z" />
    <glyph glyph-name="ampersand" unicode="&#x26;" horiz-adv-x="3072" 
d="M512 0v512h1024v-512h-1024zM2048 0v512h512v-512h-512zM1536 512v512h512v-512h-512zM0 512v1024h512v-1024h-512zM2048 1024v512h512v-512h-512zM1024 1024v512h-512v1024h512v-512h512v-1024h-512zM1536 2048v512h512v-512h-512zM1024 2560v512h512v-512h-512z" />
    <glyph glyph-name="quotesingle" unicode="'" horiz-adv-x="1024" 
d="M0 2048v1024h512v-1024h-512z" />
    <glyph glyph-name="parenleft" unicode="(" horiz-adv-x="1536" 
d="M512 0v512h512v-512h-512zM0 512v2048h512v-2048h-512zM512 2560v512h512v-512h-512z" />
    <glyph glyph-name="parenright" unicode=")" horiz-adv-x="1536" 
d="M0 0v512h512v-512h-512zM512 512v2048h512v-2048h-512zM0 2560v512h512v-512h-512z" />
    <glyph glyph-name="asterisk" unicode="*" horiz-adv-x="2048" 
d="M0 1536v512h512v-512h-512zM1024 1536v512h512v-512h-512zM512 2048v512h512v-512h-512zM0 2560v512h512v-512h-512zM1024 2560v512h512v-512h-512z" />
    <glyph glyph-name="plus" unicode="+" horiz-adv-x="2048" 
d="M512 512v512h-512v512h512v512h512v-512h512v-512h-512v-512h-512z" />
    <glyph glyph-name="comma" unicode="," horiz-adv-x="1024" 
d="M0 -512v1024h512v-1024h-512z" />
    <glyph glyph-name="hyphen" unicode="-" horiz-adv-x="2048" 
d="M0 1024v512h1536v-512h-1536z" />
    <glyph glyph-name="period" unicode="." horiz-adv-x="1024" 
d="M0 0v512h512v-512h-512z" />
    <glyph glyph-name="slash" unicode="/" 
d="M0 0v512h512v-512h-512zM512 512v1024h512v-1024h-512zM1024 1536v1024h512v-1024h-512zM1536 2560v512h512v-512h-512z" />
    <glyph glyph-name="zero" unicode="0" 
d="M512 0v512h1024v-512h-1024zM0 512v2048h512v-512h512v-512h-512v-1024h-512zM1536 512v512h-512v512h512v1024h512v-2048h-512zM512 2560v512h1024v-512h-1024z" />
    <glyph glyph-name="one" unicode="1" horiz-adv-x="2048" 
d="M0 1536v512h512v-512h-512zM1024 0v2048h-512v512h512v512h512v-3072h-512z" />
    <glyph glyph-name="two" unicode="2" 
d="M0 0v512h512v512h512v-512h1024v-512h-2048zM1024 1024v512h512v-512h-512zM0 1536v1024h512v-1024h-512zM1536 1536v1024h512v-1024h-512zM512 2560v512h1024v-512h-1024z" />
    <glyph glyph-name="three" unicode="3" 
d="M512 0v512h1024v-512h-1024zM0 512v512h512v-512h-512zM1536 512v1024h512v-1024h-512zM1024 1536v512h512v-512h-512zM0 2048v512h512v-512h-512zM1536 2048v512h512v-512h-512zM512 2560v512h1024v-512h-1024z" />
    <glyph glyph-name="four" unicode="4" 
d="M1536 0v1536h-1536v1536h512v-1024h1024v1024h512v-3072h-512z" />
    <glyph glyph-name="five" unicode="5" 
d="M512 0v512h1024v-512h-1024zM0 512v512h512v-512h-512zM1536 512v1024h512v-1024h-512zM512 1536v512h1024v-512h-1024zM0 2048v1024h2048v-512h-1536v-512h-512z" />
    <glyph glyph-name="six" unicode="6" 
d="M512 0v512h1024v-512h-1024zM1536 512v1024h512v-1024h-512zM0 512v2048h512v-512h1024v-512h-1024v-1024h-512zM512 2560v512h1024v-512h-1024z" />
    <glyph glyph-name="seven" unicode="7" 
d="M512 0v1536h512v-1536h-512zM1024 1536v512h512v-512h-512zM1536 2048v512h-1536v512h2048v-1024h-512z" />
    <glyph glyph-name="eight" unicode="8" 
d="M512 0v512h1024v-512h-1024zM0 512v1024h512v-1024h-512zM1536 512v1024h512v-1024h-512zM512 1536v512h1024v-512h-1024zM0 2048v512h512v-512h-512zM1536 2048v512h512v-512h-512zM512 2560v512h1024v-512h-1024z" />
    <glyph glyph-name="nine" unicode="9" 
d="M512 0v512h1024v-512h-1024zM0 1536v1024h512v-1024h-512zM1536 512v512h-1024v512h1024v1024h512v-2048h-512zM512 2560v512h1024v-512h-1024z" />
    <glyph glyph-name="colon" unicode=":" horiz-adv-x="1024" 
d="M0 0v512h512v-512h-512zM0 1536v512h512v-512h-512z" />
    <glyph glyph-name="semicolon" unicode=";" horiz-adv-x="1024" 
d="M0 -512v1024h512v-1024h-512zM0 1536v512h512v-512h-512z" />
    <glyph glyph-name="less" unicode="&#x3c;" horiz-adv-x="2048" 
d="M1024 0v512h512v-512h-512zM512 512v512h512v-512h-512zM0 1024v512h512v-512h-512zM512 1536v512h512v-512h-512zM1024 2048v512h512v-512h-512z" />
    <glyph glyph-name="equal" unicode="=" horiz-adv-x="2048" 
d="M0 512v512h1536v-512h-1536zM0 1536v512h1536v-512h-1536z" />
    <glyph glyph-name="greater" unicode="&#x3e;" horiz-adv-x="2048" 
d="M0 0v512h512v-512h-512zM512 512v512h512v-512h-512zM1024 1024v512h512v-512h-512zM512 1536v512h512v-512h-512zM0 2048v512h512v-512h-512z" />
    <glyph glyph-name="question" unicode="?" 
d="M512 0v512h512v-512h-512zM512 1024v512h512v-512h-512zM1024 1536v512h512v-512h-512zM0 2048v512h512v-512h-512zM1536 2048v512h512v-512h-512zM512 2560v512h1024v-512h-1024z" />
    <glyph glyph-name="at" unicode="@" horiz-adv-x="4096" 
d="M512 512v512h512v-512h-512zM1024 0v512h512v512h1024v-512h512v-512h-2048zM3072 512v512h512v-512h-512zM1024 1024v512h512v-512h-512zM2560 1024v512h512v-512h-512zM0 1024v1024h512v-1024h-512zM1536 1536v512h1024v-512h-1024zM3072 1536v512h512v-512h-512z
M512 2048v512h512v-512h-512zM2560 2048v512h512v-512h-512zM1024 2560v512h1536v-512h-1536z" />
    <glyph glyph-name="A" unicode="A" 
d="M0 0v2560h512v-1024h1024v1024h512v-2560h-512v1024h-1024v-1024h-512zM512 2560v512h1024v-512h-1024z" />
    <glyph glyph-name="B" unicode="B" 
d="M1536 512v1024h512v-1024h-512zM1536 2048v512h512v-512h-512zM0 0v3072h1536v-512h-1024v-512h1024v-512h-1024v-1024h1024v-512h-1536z" />
    <glyph glyph-name="C" unicode="C" 
d="M512 0v512h1024v-512h-1024zM1536 512v512h512v-512h-512zM0 512v2048h512v-2048h-512zM1536 2048v512h512v-512h-512zM512 2560v512h1024v-512h-1024z" />
    <glyph glyph-name="D" unicode="D" 
d="M1536 512v2048h512v-2048h-512zM0 0v3072h1536v-512h-1024v-2048h1024v-512h-1536z" />
    <glyph glyph-name="E" unicode="E" 
d="M0 0v3072h2048v-512h-1536v-512h1024v-512h-1024v-1024h1536v-512h-2048z" />
    <glyph glyph-name="F" unicode="F" 
d="M0 0v3072h2048v-512h-1536v-512h1024v-512h-1024v-1536h-512z" />
    <glyph glyph-name="G" unicode="G" 
d="M512 0v512h1024v-512h-1024zM1536 512v512h-512v512h1024v-1024h-512zM0 512v2048h512v-2048h-512zM1536 2048v512h512v-512h-512zM512 2560v512h1024v-512h-1024z" />
    <glyph glyph-name="H" unicode="H" 
d="M0 0v3072h512v-1536h1024v1536h512v-3072h-512v1024h-1024v-1024h-512z" />
    <glyph glyph-name="I" unicode="I" horiz-adv-x="1024" 
d="M0 0v2048h512v-2048h-512zM0 2560v512h512v-512h-512z" />
    <glyph glyph-name="J" unicode="J" 
d="M512 0v512h1024v-512h-1024zM0 512v512h512v-512h-512zM1536 512v2048h-1024v512h1536v-2560h-512z" />
    <glyph glyph-name="K" unicode="K" 
d="M1536 0v1024h512v-1024h-512zM1024 1024v512h512v-512h-512zM1024 2048v512h512v-512h-512zM0 0v3072h512v-1024h512v-512h-512v-1536h-512zM1536 2560v512h512v-512h-512z" />
    <glyph glyph-name="L" unicode="L" 
d="M0 0v3072h512v-2560h1536v-512h-2048z" />
    <glyph glyph-name="M" unicode="M" horiz-adv-x="3072" 
d="M1024 1536v512h512v-512h-512zM0 0v3072h512v-512h512v-512h-512v-2048h-512zM2048 0v2048h-512v512h512v512h512v-3072h-512z" />
    <glyph glyph-name="N" unicode="N" 
d="M0 0v3072h512v-1024h512v-512h-512v-1536h-512zM1536 0v512h-512v1024h512v1536h512v-3072h-512z" />
    <glyph glyph-name="O" unicode="O" 
d="M512 0v512h1024v-512h-1024zM0 512v2048h512v-2048h-512zM1536 512v2048h512v-2048h-512zM512 2560v512h1024v-512h-1024z" />
    <glyph glyph-name="P" unicode="P" 
d="M1536 1536v1024h512v-1024h-512zM0 0v3072h1536v-512h-1024v-1024h1024v-512h-1024v-1024h-512z" />
    <glyph glyph-name="Q" unicode="Q" 
d="M0 512v2048h512v-2048h-512zM512 0v512h512v512h512v1536h512v-2560h-1536zM512 2560v512h1024v-512h-1024z" />
    <glyph glyph-name="R" unicode="R" 
d="M1536 0v512h512v-512h-512zM1536 1536v1024h512v-1024h-512zM0 0v3072h1536v-512h-1024v-1024h1024v-1024h-512v512h-512v-1024h-512z" />
    <glyph glyph-name="S" unicode="S" 
d="M512 0v512h1024v-512h-1024zM0 512v512h512v-512h-512zM1536 512v512h512v-512h-512zM1024 1024v512h512v-512h-512zM512 1536v512h512v-512h-512zM0 2048v512h512v-512h-512zM1536 2048v512h512v-512h-512zM512 2560v512h1024v-512h-1024z" />
    <glyph glyph-name="T" unicode="T" horiz-adv-x="3072" 
d="M1024 0v2560h-1024v512h2560v-512h-1024v-2560h-512z" />
    <glyph glyph-name="U" unicode="U" 
d="M512 0v512h1024v-512h-1024zM0 512v2560h512v-2560h-512zM1536 512v2560h512v-2560h-512z" />
    <glyph glyph-name="V" unicode="V" horiz-adv-x="3072" 
d="M1024 0v1024h512v-1024h-512zM512 1024v1024h512v-1024h-512zM1536 1024v1024h512v-1024h-512zM0 2048v1024h512v-1024h-512zM2048 2048v1024h512v-1024h-512z" />
    <glyph glyph-name="W" unicode="W" horiz-adv-x="3072" 
d="M1024 1024v512h512v-512h-512zM0 0v3072h512v-2048h512v-512h-512v-512h-512zM2048 0v512h-512v512h512v2048h512v-3072h-512z" />
    <glyph glyph-name="X" unicode="X" horiz-adv-x="3072" 
d="M0 0v1024h512v-1024h-512zM2048 0v1024h512v-1024h-512zM512 1024v512h512v-512h-512zM1536 1024v512h512v-512h-512zM1024 1536v512h512v-512h-512zM512 2048v512h512v-512h-512zM1536 2048v512h512v-512h-512zM0 2560v512h512v-512h-512zM2048 2560v512h512v-512h-512z
" />
    <glyph glyph-name="Y" unicode="Y" horiz-adv-x="3072" 
d="M1024 0v2048h512v-2048h-512zM512 2048v512h512v-512h-512zM1536 2048v512h512v-512h-512zM0 2560v512h512v-512h-512zM2048 2560v512h512v-512h-512z" />
    <glyph glyph-name="Z" unicode="Z" 
d="M0 0v1024h512v-512h1536v-512h-2048zM512 1024v512h512v-512h-512zM1024 1536v512h512v-512h-512zM1536 2048v512h-1536v512h2048v-1024h-512z" />
    <glyph glyph-name="bracketleft" unicode="[" horiz-adv-x="1536" 
d="M0 0v3072h1024v-512h-512v-2048h512v-512h-1024z" />
    <glyph glyph-name="backslash" unicode="\" 
d="M1536 0v512h512v-512h-512zM1024 512v1024h512v-1024h-512zM512 1536v1024h512v-1024h-512zM0 2560v512h512v-512h-512z" />
    <glyph glyph-name="bracketright" unicode="]" horiz-adv-x="1536" 
d="M0 0v512h512v2048h-512v512h1024v-3072h-1024z" />
    <glyph glyph-name="asciicircum" unicode="^" horiz-adv-x="2048" 
d="M0 1536v1024h512v-1024h-512zM1024 1536v1024h512v-1024h-512zM512 2560v512h512v-512h-512z" />
    <glyph glyph-name="underscore" unicode="_" 
d="M0 0v512h2048v-512h-2048z" />
    <glyph glyph-name="grave" unicode="`" horiz-adv-x="1536" 
d="M512 2048v512h512v-512h-512zM0 2560v512h512v-512h-512z" />
    <glyph glyph-name="a" unicode="a" 
d="M0 512v1024h512v-1024h-512zM512 0v512h1024v1024h-1024v512h1536v-2048h-1536z" />
    <glyph glyph-name="b" unicode="b" 
d="M1536 512v1024h512v-1024h-512zM0 0v3072h512v-1024h1024v-512h-1024v-1024h1024v-512h-1536z" />
    <glyph glyph-name="c" unicode="c" 
d="M512 0v512h1536v-512h-1536zM0 512v1024h512v-1024h-512zM512 1536v512h1536v-512h-1536z" />
    <glyph glyph-name="d" unicode="d" 
d="M0 512v1024h512v-1024h-512zM512 0v512h1024v1024h-1024v512h1024v1024h512v-3072h-1536z" />
    <glyph glyph-name="e" unicode="e" 
d="M512 0v512h1024v-512h-1024zM0 512v1024h512v512h1024v-512h512v-512h-1536v-512h-512z" />
    <glyph glyph-name="f" unicode="f" horiz-adv-x="2048" 
d="M512 0v1536h-512v512h512v512h512v-512h512v-512h-512v-1536h-512zM1024 2560v512h512v-512h-512z" />
    <glyph glyph-name="g" unicode="g" 
d="M512 -1024v512h1024v-512h-1024zM0 512v1024h512v-1024h-512zM1536 -512v512h-1024v512h1024v1024h-1024v512h1536v-2560h-512z" />
    <glyph glyph-name="h" unicode="h" 
d="M1536 0v1536h512v-1536h-512zM0 0v3072h512v-1024h1024v-512h-1024v-1536h-512z" />
    <glyph glyph-name="i" unicode="i" horiz-adv-x="1024" 
d="M0 0v1536h512v-1536h-512zM0 2048v512h512v-512h-512z" />
    <glyph glyph-name="j" unicode="j" horiz-adv-x="2048" 
d="M512 -1024v512h512v-512h-512zM0 -512v512h512v-512h-512zM1024 -512v2048h512v-2048h-512zM1024 2048v512h512v-512h-512z" />
    <glyph glyph-name="k" unicode="k" 
d="M1536 0v512h512v-512h-512zM1024 512v512h512v-512h-512zM1024 1536v512h512v-512h-512zM0 0v3072h512v-1536h512v-512h-512v-1024h-512z" />
    <glyph glyph-name="l" unicode="l" horiz-adv-x="1536" 
d="M512 0v512h512v-512h-512zM0 512v2048h512v-2048h-512z" />
    <glyph glyph-name="m" unicode="m" horiz-adv-x="3072" 
d="M1024 512v1024h512v-1024h-512zM2048 0v1536h512v-1536h-512zM0 0v2048h1024v-512h-512v-1536h-512zM1536 1536v512h512v-512h-512z" />
    <glyph glyph-name="n" unicode="n" horiz-adv-x="2048" 
d="M1024 0v1536h512v-1536h-512zM0 0v2048h1024v-512h-512v-1536h-512z" />
    <glyph glyph-name="o" unicode="o" 
d="M512 0v512h1024v-512h-1024zM0 512v1024h512v-1024h-512zM1536 512v1024h512v-1024h-512zM512 1536v512h1024v-512h-1024z" />
    <glyph glyph-name="p" unicode="p" 
d="M1536 512v1024h512v-1024h-512zM0 -1024v3072h1536v-512h-1024v-1024h1024v-512h-1024v-1024h-512z" />
    <glyph glyph-name="q" unicode="q" 
d="M0 512v1024h512v-1024h-512zM1536 -1024v1024h-1024v512h1024v1024h-1024v512h1536v-3072h-512z" />
    <glyph glyph-name="r" unicode="r" 
d="M1536 1024v512h512v-512h-512zM0 0v2048h1536v-512h-1024v-1536h-512z" />
    <glyph glyph-name="s" unicode="s" 
d="M0 0v512h1024v512h1024v-512h-512v-512h-1536zM0 1024v512h512v512h1536v-512h-1024v-512h-1024z" />
    <glyph glyph-name="t" unicode="t" horiz-adv-x="2048" 
d="M1024 0v512h512v-512h-512zM512 512v1024h-512v512h512v512h512v-512h512v-512h-512v-1024h-512z" />
    <glyph glyph-name="u" unicode="u" 
d="M0 512v1536h512v-1536h-512zM512 0v512h1024v1536h512v-2048h-1536z" />
    <glyph glyph-name="v" unicode="v" horiz-adv-x="2048" 
d="M512 0v512h512v-512h-512zM0 512v1536h512v-1536h-512zM1024 512v1536h512v-1536h-512z" />
    <glyph glyph-name="w" unicode="w" horiz-adv-x="3072" 
d="M512 0v512h512v-512h-512zM1536 0v512h512v-512h-512zM1024 512v1024h512v-1024h-512zM0 512v1536h512v-1536h-512zM2048 512v1536h512v-1536h-512z" />
    <glyph glyph-name="x" unicode="x" 
d="M0 0v512h512v-512h-512zM1536 0v512h512v-512h-512zM512 512v1024h1024v-1024h-1024zM0 1536v512h512v-512h-512zM1536 1536v512h512v-512h-512z" />
    <glyph glyph-name="y" unicode="y" 
d="M512 -1024v512h1024v-512h-1024zM0 512v1536h512v-1536h-512zM1536 -512v512h-1024v512h1024v1536h512v-2560h-512z" />
    <glyph glyph-name="z" unicode="z" 
d="M0 0v512h512v512h512v-512h1024v-512h-2048zM1024 1024v512h-1024v512h2048v-512h-512v-512h-512z" />
    <glyph glyph-name="braceleft" unicode="{" horiz-adv-x="2048" 
d="M1024 0v512h512v-512h-512zM512 512v1024h512v-1024h-512zM0 1536v512h512v-512h-512zM512 2048v512h512v-512h-512zM1024 2560v512h512v-512h-512z" />
    <glyph glyph-name="bar" unicode="|" horiz-adv-x="1024" 
d="M0 0v3072h512v-3072h-512z" />
    <glyph glyph-name="braceright" unicode="}" horiz-adv-x="2048" 
d="M0 0v512h512v-512h-512zM512 512v1024h512v-1024h-512zM1024 1536v512h512v-512h-512zM512 2048v512h512v-512h-512zM0 2560v512h512v-512h-512z" />
    <glyph glyph-name="asciitilde" unicode="~" 
d="M0 1024v512h512v-512h-512zM1024 1024v512h512v-512h-512zM512 1536v512h512v-512h-512zM1536 1536v512h512v-512h-512z" />
    <glyph glyph-name="exclamdown" unicode="&#xa1;" horiz-adv-x="1024" 
d="M0 0v2048h512v-2048h-512zM0 2560v512h512v-512h-512z" />
    <glyph glyph-name="cent" unicode="&#xa2;" 
d="M1024 0v512h1024v-512h-1024zM512 512v512h-512v512h512v512h512v-512h512v-512h-512v-512h-512zM1024 2048v512h1024v-512h-1024z" />
    <glyph glyph-name="sterling" unicode="&#xa3;" 
d="M0 0v1024h512v-512h1536v-512h-2048zM512 1024v512h-512v512h1024v512h512v-512h512v-512h-1024v-512h-512zM1536 2560v512h512v-512h-512z" />
    <glyph glyph-name="currency" unicode="&#xa4;" 
d="M0 512v512h512v-512h-512zM1536 512v512h512v-512h-512zM512 1024v1024h1024v-1024h-1024zM0 2048v512h512v-512h-512zM1536 2048v512h512v-512h-512z" />
    <glyph glyph-name="yen" unicode="&#xa5;" horiz-adv-x="3072" 
d="M1024 0v512h-1024v512h1024v512h-1024v512h512v512h512v-512h512v512h512v-512h512v-512h-1024v-512h1024v-512h-1024v-512h-512zM0 2560v512h512v-512h-512zM2048 2560v512h512v-512h-512z" />
    <glyph glyph-name="brokenbar" unicode="&#xa6;" horiz-adv-x="1024" 
d="M0 0v1024h512v-1024h-512zM0 2048v1024h512v-1024h-512z" />
    <glyph glyph-name="section" unicode="&#xa7;" 
d="M0 0v512h1536v-512h-1536zM1536 512v512h512v-512h-512zM512 1024v1024h1024v-1024h-1024zM0 2048v512h512v-512h-512zM512 2560v512h1536v-512h-1536z" />
    <glyph glyph-name="dieresis" unicode="&#xa8;" horiz-adv-x="2048" 
d="M0 2560v512h512v-512h-512zM1024 2560v512h512v-512h-512z" />
    <glyph glyph-name="copyright" unicode="&#xa9;" horiz-adv-x="4096" 
d="M512 512v512h512v-512h-512zM1024 0v512h512v512h1536v-512h-512v-512h-1536zM1024 1024v512h512v-512h-512zM0 1024v1024h512v-1024h-512zM1536 1536v512h1024v-512h-1024zM3072 1024v1024h512v-1024h-512zM512 2048v512h512v-512h-512zM2560 2048v512h512v-512h-512z
M1024 2560v512h1536v-512h-1536z" />
    <glyph glyph-name="ordfeminine" unicode="&#xaa;" horiz-adv-x="2048" 
d="M0 1024v1024h1024v512h512v-1536h-1536zM0 2560v512h1024v-512h-1024z" />
    <glyph glyph-name="guillemotleft" unicode="&#xab;" horiz-adv-x="3072" 
d="M512 512v512h512v-512h-512zM2048 512v512h512v-512h-512zM0 1024v512h512v-512h-512zM1536 1024v512h512v-512h-512zM512 1536v512h512v-512h-512zM2048 1536v512h512v-512h-512z" />
    <glyph glyph-name="logicalnot" unicode="&#xac;" 
d="M1536 512v512h-1536v512h2048v-1024h-512z" />
    <glyph glyph-name="uni00AD" unicode="&#xad;" 
d="M0 1024v512h2048v-512h-2048z" />
    <glyph glyph-name="registered" unicode="&#xae;" horiz-adv-x="2048" 
d="M1024 1024v512h512v-512h-512zM0 1024v2048h1536v-1024h-512v-512h-512v-512h-512z" />
    <glyph glyph-name="macron" unicode="&#xaf;" horiz-adv-x="2048" 
d="M0 2560v512h1536v-512h-1536z" />
    <glyph glyph-name="degree" unicode="&#xb0;" horiz-adv-x="1536" 
d="M0 2048v1024h1024v-1024h-1024z" />
    <glyph glyph-name="plusminus" unicode="&#xb1;" horiz-adv-x="2048" 
d="M0 512v512h1536v-512h-1536zM512 1536v512h-512v512h512v512h512v-512h512v-512h-512v-512h-512z" />
    <glyph glyph-name="uni00B2" unicode="&#xb2;" horiz-adv-x="2048" 
d="M0 1024v512h512v512h512v-512h512v-512h-1536zM1024 2048v512h512v-512h-512zM0 2560v512h1024v-512h-1024z" />
    <glyph glyph-name="uni00B3" unicode="&#xb3;" horiz-adv-x="2048" 
d="M0 1024v512h1024v512h512v-1024h-1536zM512 2048v512h-512v512h1536v-512h-512v-512h-512z" />
    <glyph glyph-name="acute" unicode="&#xb4;" horiz-adv-x="1536" 
d="M0 2048v512h512v-512h-512zM512 2560v512h512v-512h-512z" />
    <glyph glyph-name="uni00B5" unicode="&#xb5;" 
d="M0 0v2560h512v-1536h1024v-512h-1024v-512h-512zM1536 1024v1536h512v-1536h-512z" />
    <glyph glyph-name="paragraph" unicode="&#xb6;" 
d="M0 1536v1024h512v-1024h-512zM1024 0v1024h-512v512h512v1024h-512v512h1536v-3072h-1024z" />
    <glyph glyph-name="periodcentered" unicode="&#xb7;" horiz-adv-x="1536" 
d="M512 1536v512h512v-512h-512z" />
    <glyph glyph-name="cedilla" unicode="&#xb8;" horiz-adv-x="1536" 
d="M0 -1024v512h512v-512h-512zM512 -512v512h512v-512h-512zM0 0v512h512v-512h-512z" />
    <glyph glyph-name="uni00B9" unicode="&#xb9;" horiz-adv-x="1536" 
d="M512 1024v1024h-512v512h512v512h512v-2048h-512z" />
    <glyph glyph-name="ordmasculine" unicode="&#xba;" horiz-adv-x="2048" 
d="M512 1536v512h512v-512h-512zM0 2048v512h512v-512h-512zM1024 2048v512h512v-512h-512zM512 2560v512h512v-512h-512z" />
    <glyph glyph-name="guillemotright" unicode="&#xbb;" horiz-adv-x="3072" 
d="M0 512v512h512v-512h-512zM1536 512v512h512v-512h-512zM512 1024v512h512v-512h-512zM2048 1024v512h512v-512h-512zM0 1536v512h512v-512h-512zM1536 1536v512h512v-512h-512z" />
    <glyph glyph-name="onequarter" unicode="&#xbc;" horiz-adv-x="4608" 
d="M1024 0v512h512v-512h-512zM1536 512v1024h512v-1024h-512zM3584 0v1024h-1024v512h-512v1024h512v-512h512v-512h512v512h512v-2048h-512zM512 1024v1024h-512v512h512v512h512v-2048h-512zM2560 2560v512h512v-512h-512z" />
    <glyph glyph-name="onehalf" unicode="&#xbd;" horiz-adv-x="4608" 
d="M1024 0v512h512v-512h-512zM2560 0v512h512v512h512v-512h512v-512h-1536zM1536 512v1024h512v-1024h-512zM3584 1024v512h512v-512h-512zM2048 1536v1024h512v-512h1024v-512h-1536zM512 1024v1024h-512v512h512v512h512v-2048h-512zM2560 2560v512h512v-512h-512z" />
    <glyph glyph-name="threequarters" unicode="&#xbe;" horiz-adv-x="4608" 
d="M1024 0v512h512v-512h-512zM1536 512v512h-1536v512h1024v512h512v-512h512v-1024h-512zM3584 0v1024h-1024v512h-512v1024h512v-512h512v-512h512v512h512v-2048h-512zM512 2048v512h-512v512h1536v-512h-512v-512h-512zM2560 2560v512h512v-512h-512z" />
    <glyph glyph-name="questiondown" unicode="&#xbf;" 
d="M512 0v512h1024v-512h-1024zM0 512v512h512v-512h-512zM1536 512v512h512v-512h-512zM1024 1024v512h512v-512h-512zM512 1536v512h512v-512h-512zM512 2560v512h512v-512h-512z" />
    <glyph glyph-name="Agrave" unicode="&#xc0;" 
d="M0 0v1536h512v-512h1024v512h512v-1536h-512v512h-1024v-512h-512zM512 1536v512h512v512h512v-1024h-1024zM512 2560v512h512v-512h-512z" />
    <glyph glyph-name="Aacute" unicode="&#xc1;" 
d="M0 0v1536h512v-512h1024v512h512v-1536h-512v512h-1024v-512h-512zM512 1536v1024h512v-512h512v-512h-1024zM1024 2560v512h512v-512h-512z" />
    <glyph glyph-name="Acircumflex" unicode="&#xc2;" 
d="M0 0v1536h512v-512h1024v512h512v-1536h-512v512h-1024v-512h-512zM0 2048v512h512v-512h-512zM512 1536v512h512v512h512v-1024h-1024zM512 2560v512h512v-512h-512z" />
    <glyph glyph-name="Atilde" unicode="&#xc3;" 
d="M0 0v1536h512v-512h1024v512h512v-1536h-512v512h-1024v-512h-512zM0 2048v512h512v-512h-512zM512 1536v512h512v512h512v-1024h-1024zM512 2560v512h512v-512h-512zM1536 2560v512h512v-512h-512z" />
    <glyph glyph-name="Adieresis" unicode="&#xc4;" 
d="M0 0v1536h512v-512h1024v512h512v-1536h-512v512h-1024v-512h-512zM512 1536v512h1024v-512h-1024zM0 2560v512h512v-512h-512zM1536 2560v512h512v-512h-512z" />
    <glyph glyph-name="Aring" unicode="&#xc5;" 
d="M0 0v1536h512v-512h1024v512h512v-1536h-512v512h-1024v-512h-512zM512 1536v1536h1024v-1536h-1024z" />
    <glyph glyph-name="AE" unicode="&#xc6;" horiz-adv-x="3584" 
d="M0 0v1024h512v-1024h-512zM1536 0v1024h-1024v1024h512v-512h512v512h-512v1024h2048v-512h-1024v-512h512v-512h-512v-1024h1024v-512h-1536z" />
    <glyph glyph-name="Ccedilla" unicode="&#xc7;" 
d="M512 -1024v512h512v-512h-512zM1024 -512v512h-512v512h1024v-1024h-512zM1536 512v512h512v-512h-512zM0 512v2048h512v-2048h-512zM1536 2048v512h512v-512h-512zM512 2560v512h1024v-512h-1024z" />
    <glyph glyph-name="Egrave" unicode="&#xc8;" 
d="M0 0v2048h1024v512h512v-512h512v-512h-512v-512h-1024v-512h1536v-512h-2048zM512 2560v512h512v-512h-512z" />
    <glyph glyph-name="Eacute" unicode="&#xc9;" 
d="M0 0v2048h512v512h512v-512h1024v-512h-512v-512h-1024v-512h1536v-512h-2048zM1024 2560v512h512v-512h-512z" />
    <glyph glyph-name="Ecircumflex" unicode="&#xca;" 
d="M0 0v2560h512v-512h512v512h512v-512h512v-512h-512v-512h-1024v-512h1536v-512h-2048zM512 2560v512h512v-512h-512z" />
    <glyph glyph-name="Edieresis" unicode="&#xcb;" 
d="M0 0v2048h2048v-512h-512v-512h-1024v-512h1536v-512h-2048zM0 2560v512h512v-512h-512zM1536 2560v512h512v-512h-512z" />
    <glyph glyph-name="Igrave" unicode="&#xcc;" horiz-adv-x="1536" 
d="M512 0v1536h512v-1536h-512zM512 2048v512h512v-512h-512zM0 2560v512h512v-512h-512z" />
    <glyph glyph-name="Iacute" unicode="&#xcd;" horiz-adv-x="1536" 
d="M0 0v1536h512v-1536h-512zM0 2048v512h512v-512h-512zM512 2560v512h512v-512h-512z" />
    <glyph glyph-name="Icircumflex" unicode="&#xce;" horiz-adv-x="2048" 
d="M512 0v1536h512v-1536h-512zM0 2048v512h512v-512h-512zM1024 2048v512h512v-512h-512zM512 2560v512h512v-512h-512z" />
    <glyph glyph-name="Idieresis" unicode="&#xcf;" horiz-adv-x="2048" 
d="M512 0v1536h512v-1536h-512zM0 2048v512h512v-512h-512zM1024 2048v512h512v-512h-512z" />
    <glyph glyph-name="Eth" unicode="&#xd0;" horiz-adv-x="3072" 
d="M2048 512v2048h512v-2048h-512zM512 0v1536h-512v512h512v1024h1536v-512h-1024v-512h512v-512h-512v-1024h1024v-512h-1536z" />
    <glyph glyph-name="Ntilde" unicode="&#xd1;" 
d="M1536 0v512h-512v512h512v1024h512v-2048h-512zM0 0v2560h512v-1024h512v-512h-512v-1024h-512zM1024 2048v512h512v-512h-512zM512 2560v512h512v-512h-512zM1536 2560v512h512v-512h-512z" />
    <glyph glyph-name="Ograve" unicode="&#xd2;" 
d="M512 0v512h1024v-512h-1024zM0 512v1024h512v-1024h-512zM1536 512v1024h512v-1024h-512zM512 1536v512h512v512h512v-1024h-1024zM512 2560v512h512v-512h-512z" />
    <glyph glyph-name="Oacute" unicode="&#xd3;" 
d="M512 0v512h1024v-512h-1024zM0 512v1024h512v-1024h-512zM1536 512v1024h512v-1024h-512zM512 1536v1024h512v-512h512v-512h-1024zM1024 2560v512h512v-512h-512z" />
    <glyph glyph-name="Ocircumflex" unicode="&#xd4;" 
d="M512 0v512h1024v-512h-1024zM0 512v1024h512v-1024h-512zM1536 512v1024h512v-1024h-512zM0 2048v512h512v-512h-512zM512 1536v512h512v512h512v-1024h-1024zM512 2560v512h512v-512h-512z" />
    <glyph glyph-name="Otilde" unicode="&#xd5;" 
d="M512 0v512h1024v-512h-1024zM0 512v1024h512v-1024h-512zM1536 512v1024h512v-1024h-512zM0 2048v512h512v-512h-512zM512 1536v512h512v512h512v-1024h-1024zM512 2560v512h512v-512h-512zM1536 2560v512h512v-512h-512z" />
    <glyph glyph-name="Odieresis" unicode="&#xd6;" 
d="M512 0v512h1024v-512h-1024zM0 512v1024h512v-1024h-512zM1536 512v1024h512v-1024h-512zM512 1536v512h1024v-512h-1024zM0 2560v512h512v-512h-512zM1536 2560v512h512v-512h-512z" />
    <glyph glyph-name="multiply" unicode="&#xd7;" horiz-adv-x="2048" 
d="M0 0v512h512v-512h-512zM1024 0v512h512v-512h-512zM512 512v512h512v-512h-512zM0 1024v512h512v-512h-512zM1024 1024v512h512v-512h-512z" />
    <glyph glyph-name="Oslash" unicode="&#xd8;" horiz-adv-x="3584" 
d="M0 0v512h512v-512h-512zM1024 0v512h1024v-512h-1024zM512 512v2048h512v-1024h512v-512h-512v-512h-512zM2048 512v1024h-512v512h512v512h512v-2048h-512zM1024 2560v512h1024v-512h-1024zM2560 2560v512h512v-512h-512z" />
    <glyph glyph-name="Ugrave" unicode="&#xd9;" 
d="M512 0v512h1024v-512h-1024zM0 512v1536h512v-1536h-512zM1536 512v1536h512v-1536h-512zM1024 2048v512h512v-512h-512zM512 2560v512h512v-512h-512z" />
    <glyph glyph-name="Uacute" unicode="&#xda;" 
d="M512 0v512h1024v-512h-1024zM0 512v1536h512v-1536h-512zM1536 512v1536h512v-1536h-512zM512 2048v512h512v-512h-512zM1024 2560v512h512v-512h-512z" />
    <glyph glyph-name="Ucircumflex" unicode="&#xdb;" 
d="M512 0v512h1024v-512h-1024zM1536 512v1536h512v-1536h-512zM0 512v2048h512v-2048h-512zM1024 2048v512h512v-512h-512zM512 2560v512h512v-512h-512z" />
    <glyph glyph-name="Udieresis" unicode="&#xdc;" 
d="M512 0v512h1024v-512h-1024zM0 512v1536h512v-1536h-512zM1536 512v1536h512v-1536h-512zM0 2560v512h512v-512h-512zM1536 2560v512h512v-512h-512z" />
    <glyph glyph-name="Yacute" unicode="&#xdd;" horiz-adv-x="3072" 
d="M1024 0v1024h512v-1024h-512zM512 1024v512h512v-512h-512zM1536 1024v512h512v-512h-512zM0 1536v512h512v-512h-512zM2048 1536v512h512v-512h-512zM1024 2048v512h512v-512h-512zM1536 2560v512h512v-512h-512z" />
    <glyph glyph-name="Thorn" unicode="&#xde;" 
d="M1536 1536v512h512v-512h-512zM0 0v3072h512v-512h1024v-512h-1024v-512h1024v-512h-1024v-1024h-512z" />
    <glyph glyph-name="germandbls" unicode="&#xdf;" 
d="M1024 0v512h512v-512h-512zM1536 512v1024h512v-1024h-512zM1024 1536v512h512v-512h-512zM1536 2048v512h512v-512h-512zM0 0v3072h1536v-512h-1024v-2560h-512z" />
    <glyph glyph-name="agrave" unicode="&#xe0;" 
d="M0 512v1024h512v-1024h-512zM512 0v512h1024v1024h-1024v512h512v512h512v-512h512v-2048h-1536zM512 2560v512h512v-512h-512z" />
    <glyph glyph-name="aacute" unicode="&#xe1;" 
d="M0 512v1024h512v-1024h-512zM512 0v512h1024v1024h-1024v1024h512v-512h1024v-2048h-1536zM1024 2560v512h512v-512h-512z" />
    <glyph glyph-name="acircumflex" unicode="&#xe2;" 
d="M0 512v1024h512v-1024h-512zM0 2048v512h512v-512h-512zM512 0v512h1024v1024h-1024v512h512v512h512v-512h512v-2048h-1536zM512 2560v512h512v-512h-512z" />
    <glyph glyph-name="atilde" unicode="&#xe3;" 
d="M0 512v1024h512v-1024h-512zM0 2048v512h512v-512h-512zM512 0v512h1024v1024h-1024v512h512v512h512v-512h512v-2048h-1536zM512 2560v512h512v-512h-512zM1536 2560v512h512v-512h-512z" />
    <glyph glyph-name="adieresis" unicode="&#xe4;" 
d="M0 512v1024h512v-1024h-512zM512 0v512h1024v1024h-1024v512h1536v-2048h-1536zM0 2560v512h512v-512h-512zM1536 2560v512h512v-512h-512z" />
    <glyph glyph-name="aring" unicode="&#xe5;" 
d="M0 512v1024h512v-1024h-512zM512 0v512h1024v1024h-1024v512h1536v-2048h-1536zM1024 2560v512h512v-512h-512z" />
    <glyph glyph-name="ae" unicode="&#xe6;" horiz-adv-x="4096" 
d="M0 512v1536h512v-1536h-512zM512 0v512h1024v1536h-1024v512h2560v-512h-1024v-512h1024v512h512v-1024h-1536v-512h1024v-512h-2560z" />
    <glyph glyph-name="ccedilla" unicode="&#xe7;" 
d="M512 -1024v512h512v-512h-512zM1024 -512v512h-512v512h1536v-512h-512v-512h-512zM0 512v1024h512v-1024h-512zM512 1536v512h1536v-512h-1536z" />
    <glyph glyph-name="egrave" unicode="&#xe8;" 
d="M512 0v512h1024v-512h-1024zM0 512v1024h512v512h512v512h512v-1024h512v-512h-1536v-512h-512zM512 2560v512h512v-512h-512z" />
    <glyph glyph-name="eacute" unicode="&#xe9;" 
d="M512 0v512h1024v-512h-1024zM0 512v1024h512v1024h512v-512h512v-512h512v-512h-1536v-512h-512zM1024 2560v512h512v-512h-512z" />
    <glyph glyph-name="ecircumflex" unicode="&#xea;" 
d="M512 0v512h1024v-512h-1024zM0 2048v512h512v-512h-512zM0 512v1024h512v512h512v512h512v-1024h512v-512h-1536v-512h-512zM512 2560v512h512v-512h-512z" />
    <glyph glyph-name="edieresis" unicode="&#xeb;" 
d="M512 0v512h1024v-512h-1024zM0 512v1024h512v512h1024v-512h512v-512h-1536v-512h-512zM0 2560v512h512v-512h-512zM1536 2560v512h512v-512h-512z" />
    <glyph glyph-name="igrave" unicode="&#xec;" horiz-adv-x="1536" 
d="M512 0v1536h512v-1536h-512zM512 2048v512h512v-512h-512zM0 2560v512h512v-512h-512z" />
    <glyph glyph-name="iacute" unicode="&#xed;" horiz-adv-x="2048" 
d="M512 0v1536h512v-1536h-512zM512 2048v512h512v-512h-512zM1024 2560v512h512v-512h-512z" />
    <glyph glyph-name="icircumflex" unicode="&#xee;" horiz-adv-x="2048" 
d="M512 0v1536h512v-1536h-512zM0 2048v512h512v-512h-512zM1024 2048v512h512v-512h-512zM512 2560v512h512v-512h-512z" />
    <glyph glyph-name="idieresis" unicode="&#xef;" horiz-adv-x="2048" 
d="M512 0v1536h512v-1536h-512zM0 2048v512h512v-512h-512zM1024 2048v512h512v-512h-512z" />
    <glyph glyph-name="eth" unicode="&#xf0;" 
d="M512 0v512h1024v-512h-1024zM0 512v512h512v-512h-512zM1536 512v512h-1024v512h1024v512h512v-1536h-512zM512 2048v512h512v512h512v-1024h-1024z" />
    <glyph glyph-name="ntilde" unicode="&#xf1;" 
d="M1536 0v1536h512v-1536h-512zM0 0v2560h512v-512h512v512h512v-1024h-1024v-1536h-512zM512 2560v512h512v-512h-512zM1536 2560v512h512v-512h-512z" />
    <glyph glyph-name="ograve" unicode="&#xf2;" 
d="M512 0v512h1024v-512h-1024zM0 512v1024h512v-1024h-512zM1536 512v1024h512v-1024h-512zM512 1536v512h512v512h512v-1024h-1024zM512 2560v512h512v-512h-512z" />
    <glyph glyph-name="oacute" unicode="&#xf3;" 
d="M512 0v512h1024v-512h-1024zM0 512v1024h512v-1024h-512zM1536 512v1024h512v-1024h-512zM512 1536v1024h512v-512h512v-512h-1024zM1024 2560v512h512v-512h-512z" />
    <glyph glyph-name="ocircumflex" unicode="&#xf4;" 
d="M512 0v512h1024v-512h-1024zM0 512v1024h512v-1024h-512zM1536 512v1024h512v-1024h-512zM0 2048v512h512v-512h-512zM512 1536v512h512v512h512v-1024h-1024zM512 2560v512h512v-512h-512z" />
    <glyph glyph-name="otilde" unicode="&#xf5;" 
d="M512 0v512h1024v-512h-1024zM0 512v1024h512v-1024h-512zM1536 512v1024h512v-1024h-512zM0 2048v512h512v-512h-512zM512 1536v512h512v512h512v-1024h-1024zM512 2560v512h512v-512h-512zM1536 2560v512h512v-512h-512z" />
    <glyph glyph-name="odieresis" unicode="&#xf6;" 
d="M512 0v512h1024v-512h-1024zM0 512v1024h512v-1024h-512zM1536 512v1024h512v-1024h-512zM512 1536v512h1024v-512h-1024zM0 2560v512h512v-512h-512zM1536 2560v512h512v-512h-512z" />
    <glyph glyph-name="divide" unicode="&#xf7;" horiz-adv-x="2048" 
d="M512 0v512h512v-512h-512zM0 1024v512h1536v-512h-1536zM512 2048v512h512v-512h-512z" />
    <glyph glyph-name="oslash" unicode="&#xf8;" horiz-adv-x="3072" 
d="M0 0v512h512v-512h-512zM1536 1024v512h-512v-512h512zM512 512v1536h1536v-1536h-1536zM2048 2048v512h512v-512h-512z" />
    <glyph glyph-name="ugrave" unicode="&#xf9;" 
d="M0 512v1536h512v-1536h-512zM512 0v512h1024v1536h512v-2048h-1536zM1024 2048v512h512v-512h-512zM512 2560v512h512v-512h-512z" />
    <glyph glyph-name="uacute" unicode="&#xfa;" 
d="M0 512v1536h512v-1536h-512zM512 0v512h1024v1536h512v-2048h-1536zM512 2048v512h512v-512h-512zM1024 2560v512h512v-512h-512z" />
    <glyph glyph-name="ucircumflex" unicode="&#xfb;" 
d="M512 0v512h1024v1536h512v-2048h-1536zM0 512v2048h512v-2048h-512zM1024 2048v512h512v-512h-512zM512 2560v512h512v-512h-512z" />
    <glyph glyph-name="udieresis" unicode="&#xfc;" 
d="M0 512v1536h512v-1536h-512zM512 0v512h1024v1536h512v-2048h-1536zM0 2560v512h512v-512h-512zM1536 2560v512h512v-512h-512z" />
    <glyph glyph-name="yacute" unicode="&#xfd;" 
d="M512 -1024v512h1024v-512h-1024zM0 512v1536h512v-1536h-512zM1536 -512v512h-1024v512h1024v1536h512v-2560h-512zM512 2048v512h512v-512h-512zM1024 2560v512h512v-512h-512z" />
    <glyph glyph-name="thorn" unicode="&#xfe;" horiz-adv-x="2048" 
d="M1024 1024v1024h512v-1024h-512zM0 0v3072h512v-512h512v-512h-512v-1024h512v-512h-512v-512h-512z" />
    <glyph glyph-name="ydieresis" unicode="&#xff;" 
d="M512 -1024v512h1024v-512h-1024zM0 512v1536h512v-1536h-512zM1536 -512v512h-1024v512h1024v1536h512v-2560h-512zM0 2560v512h512v-512h-512zM1536 2560v512h512v-512h-512z" />
    <glyph glyph-name="dotlessi" unicode="&#x131;" horiz-adv-x="1024" 
d="M0 0v2048h512v-2048h-512z" />
    <glyph glyph-name="OE" unicode="&#x152;" horiz-adv-x="4096" 
d="M0 512v2048h512v-2048h-512zM512 0v512h1024v2048h-1024v512h3072v-512h-1536v-512h1024v-512h-1024v-1024h1536v-512h-3072z" />
    <glyph glyph-name="oe" unicode="&#x153;" horiz-adv-x="4096" 
d="M512 0v512h1024v-512h-1024zM2048 0v512h1024v-512h-1024zM0 512v1024h512v-1024h-512zM512 1536v512h1024v-512h-1024zM1536 512v1024h512v512h1024v-512h512v-512h-1536v-512h-512z" />
    <glyph glyph-name="circumflex" unicode="&#x2c6;" horiz-adv-x="2048" 
d="M0 2048v512h512v-512h-512zM1024 2048v512h512v-512h-512zM512 2560v512h512v-512h-512z" />
    <glyph glyph-name="ring" unicode="&#x2da;" horiz-adv-x="1536" 
d="M0 2048v1024h1024v-1024h-1024z" />
    <glyph glyph-name="tilde" unicode="&#x2dc;" 
d="M0 2048v512h512v-512h-512zM1024 2048v512h512v-512h-512zM512 2560v512h512v-512h-512zM1536 2560v512h512v-512h-512z" />
    <glyph glyph-name="endash" unicode="&#x2013;" horiz-adv-x="1536" 
d="M0 1024v512h1024v-512h-1024z" />
    <glyph glyph-name="emdash" unicode="&#x2014;" 
d="M0 1024v512h2048v-512h-2048z" />
    <glyph glyph-name="quoteleft" unicode="&#x2018;" horiz-adv-x="1536" 
d="M0 2048v512h512v-512h-512zM512 2560v512h512v-512h-512z" />
    <glyph glyph-name="quoteright" unicode="&#x2019;" horiz-adv-x="1536" 
d="M512 2048v512h512v-512h-512zM0 2560v512h512v-512h-512z" />
    <glyph glyph-name="quotesinglbase" unicode="&#x201a;" horiz-adv-x="1536" 
d="M512 0v512h512v-512h-512zM0 512v512h512v-512h-512z" />
    <glyph glyph-name="quotedblleft" unicode="&#x201c;" horiz-adv-x="3072" 
d="M0 2048v512h512v-512h-512zM1536 2048v512h512v-512h-512zM512 2560v512h512v-512h-512zM2048 2560v512h512v-512h-512z" />
    <glyph glyph-name="quotedblright" unicode="&#x201d;" horiz-adv-x="3072" 
d="M512 2048v512h512v-512h-512zM2048 2048v512h512v-512h-512zM0 2560v512h512v-512h-512zM1536 2560v512h512v-512h-512z" />
    <glyph glyph-name="quotedblbase" unicode="&#x201e;" horiz-adv-x="3072" 
d="M512 0v512h512v-512h-512zM2048 0v512h512v-512h-512zM0 512v512h512v-512h-512zM1536 512v512h512v-512h-512z" />
    <glyph glyph-name="bullet" unicode="&#x2022;" horiz-adv-x="1024" 
d="M0 1024v512h512v-512h-512z" />
    <glyph glyph-name="ellipsis" unicode="&#x2026;" horiz-adv-x="3072" 
d="M0 0v512h512v-512h-512zM1024 0v512h512v-512h-512zM2048 0v512h512v-512h-512z" />
    <glyph glyph-name="guilsinglleft" unicode="&#x2039;" horiz-adv-x="1536" 
d="M512 512v512h512v-512h-512zM0 1024v512h512v-512h-512zM512 1536v512h512v-512h-512z" />
    <glyph glyph-name="guilsinglright" unicode="&#x203a;" horiz-adv-x="1536" 
d="M0 512v512h512v-512h-512zM512 1024v512h512v-512h-512zM0 1536v512h512v-512h-512z" />
    <glyph glyph-name="fraction" unicode="&#x2044;" horiz-adv-x="3072" 
d="M0 0v512h512v-512h-512zM512 512v512h512v-512h-512zM1024 1024v1024h512v-1024h-512zM1536 2048v512h512v-512h-512zM2048 2560v512h512v-512h-512z" />
    <glyph glyph-name="uni2074" unicode="&#x2074;" horiz-adv-x="2048" 
d="M1024 1536v512h-1024v1024h512v-512h512v512h512v-1536h-512z" />
    <glyph glyph-name="Euro" unicode="&#x20ac;" horiz-adv-x="3072" 
d="M1024 0v512h1024v-512h-1024zM2048 512v512h512v-512h-512zM512 512v512h-512v1024h512v512h512v-512h512v-1024h-512v-512h-512zM2048 2048v512h512v-512h-512zM1024 2560v512h1024v-512h-1024z" />
    <glyph glyph-name="minus" unicode="&#x2212;" horiz-adv-x="2048" 
d="M0 1024v512h1536v-512h-1536z" />
    <glyph glyph-name="uni2215" unicode="&#x2215;" 
d="M0 0v512h512v-512h-512zM512 512v1024h512v-1024h-512zM1024 1536v1024h512v-1024h-512zM1536 2560v512h512v-512h-512z" />
  </font>
</defs>
</svg>
